<svg xmlns="http://www.w3.org/2000/svg" viewBox="0 0 256 256" role="img" aria-labelledby="title desc">
  <title id="title">OpenArm app icon</title>
  <desc id="desc">A bold yellow heart in a black rounded square with a helping hand accent.</desc>
  <rect width="256" height="256" rx="56" fill="#000000" />
  <path
    d="M128 209c-8.3 0-16.2-3.3-22.1-9.2l-50.3-50.3C41.9 135.8 34 119.2 34 101.4 34 64.9 63.9 35 100.4 35c17.2 0 33.6 6.8 45.8 18.8L128 72l-18.2-18.2C97.6 41.8 81.2 35 64 35 27.5 35-2.4 64.9-2.4 101.4c0 17.8 7.9 34.4 21.6 48.1l86.2 86.2c5.9 5.9 13.8 9.2 22.1 9.2s16.2-3.3 22.1-9.2l78-78c13.6-13.6 21.2-32 21.2-51.3C248.8 69.3 219 39.5 182 39.5c-17.1 0-33.4 6.7-45.5 18.7l-8.5 8.5-8.6-8.6C107.3 46.2 91 39.5 73.9 39.5c-6.6 0-13 1-19.1 2.9 22-2.4 44.7 4.8 61 21.1L128 75.7l12.2-12.2c11.2-11.2 26.4-17.5 42.2-17.5 32.2 0 58.4 26.2 58.4 58.4 0 15.6-6.2 30.5-17.2 41.5l-78 78c-5.9 5.9-13.8 9.1-22.1 9.1Z"
    fill="#ffd700"
    transform="translate(5 5)"
  />
  <path
    d="M76 150c18 0 25 4 37 14 9 8 15 12 25 12 13 0 20-7 30-18l23-25c6-7 16-7 22-1 6 6 6 16 0 22l-31 34c-15 16-29 24-46 24-18 0-31-6-46-18-10-8-15-10-22-10H46c-8 0-14-6-14-14s6-14 14-14h30Z"
    fill="#ffffff"
  />
  <circle cx="188" cy="76" r="18" fill="#ffd700" />
</svg>
